<svg width="32" height="32" fill="none" xmlns="http://www.w3.org/2000/svg"><path fill-rule="evenodd" clip-rule="evenodd" d="M15.53 1.734c-.223.177-.67 1.13-.84 1.792-.177.683-.274 1.613-.225 2.152.069.766.16 1.173.503 2.248.745 2.33 1.02 3.6 1.072 4.938.028.71.013 1.025-.064 1.391-.265 1.252-.99 1.974-2.1 2.087-1.513.154-2.659-.554-3.191-1.975-.108-.287-.254-.572-.325-.633-.192-.166-.586-.145-.77.04-.421.428-.726 3.017-.537 4.573.123 1.01.067.93.623.88 1.229-.11 2.603.21 5.167 1.202 2.815 1.089 4.863 1.644 7.287 1.974 1.396.191 5.165.14 5.888-.079.214-.065.488-1.589.49-2.727.002-1.33-.294-2.593-.904-3.853-.523-1.081-.801-1.334-1.253-1.143-.211.09-.278.205-.467.805-.154.486-.482 1.06-.862 1.507-.598.701-1.555.925-2.36.55-.68-.316-.977-.717-1.104-1.495-.098-.6-.01-1.406.349-3.211.67-3.37.719-4.037.378-5.07-.194-.588-.411-.838-.727-.838-.28 0-.396.09-.603.46a2.405 2.405 0 0 1-1.07.987c-.296.14-.439.166-.914.166-.5.001-.608-.02-.97-.194-1.31-.631-1.761-2.086-1.604-5.182l.057-1.135-.197-.178c-.239-.217-.488-.23-.727-.04ZM.474 18.946c-.423.226-.596.786-.383 1.24.186.397 1.63 1.63 2.756 2.352.76.487 1.835 1.05 1.888.986.025-.03.097-.227.16-.436.061-.208.21-.588.329-.844.119-.255.207-.471.196-.48a30.517 30.517 0 0 0-.646-.346 13.17 13.17 0 0 1-2.539-1.77 15.84 15.84 0 0 0-.86-.722c-.219-.145-.61-.136-.9.02Zm8.969 1.52c-1.169.154-2.163.77-2.783 1.722-.653 1.004-.883 1.853-.836 3.085.048 1.277.363 2.02 1.232 2.918 1.361 1.406 3.636 2.245 7.13 2.631 1.206.134 3.933.15 4.848.03 4.66-.61 8.65-2.597 11.792-5.873 1.16-1.208 1.301-1.448 1.095-1.853-.177-.345-.36-.36-1.328-.11a26.742 26.742 0 0 1-3.178.62c-1.083.134-4.41.116-5.473-.03-2.551-.348-4.939-1.01-7.904-2.191-1.959-.78-3.489-1.097-4.595-.95ZM8.05 23.718a.65.65 0 0 1 .257.29c.069.168.065.249-.022.53-.315 1.012.103 1.877 1.232 2.546 1.24.736 3.384 1.25 5.82 1.393.381.023.77.08.864.128.342.175.4.586.129.913l-.17.204-.847-.04c-2.256-.106-4.428-.587-5.912-1.308-1.105-.538-1.775-1.16-2.183-2.026-.184-.39-.194-.453-.194-1.171 0-.684.016-.792.156-1.076.22-.446.508-.573.87-.383Z" fill="#1B1B1B"/><path fill-rule="evenodd" clip-rule="evenodd" d="M.474 18.946c-.423.226-.596.786-.383 1.24.186.397 1.63 1.63 2.756 2.352.76.488 1.835 1.05 1.888.986.025-.03.097-.226.16-.435.061-.21.21-.59.329-.844.119-.256.207-.472.196-.48a30.786 30.786 0 0 0-.646-.347 13.173 13.173 0 0 1-2.539-1.77 15.86 15.86 0 0 0-.86-.722c-.219-.145-.61-.136-.9.02Zm8.969 1.52c-1.169.155-2.163.77-2.783 1.723-.653 1.003-.883 1.852-.836 3.084.048 1.277.363 2.02 1.232 2.918 1.361 1.406 3.636 2.245 7.13 2.631 1.206.134 3.933.15 4.848.03 4.66-.61 8.65-2.597 11.792-5.873 1.16-1.207 1.301-1.448 1.095-1.853-.177-.345-.36-.36-1.328-.11a26.722 26.722 0 0 1-3.178.621c-1.083.133-4.41.115-5.473-.03-2.551-.349-4.939-1.01-7.904-2.192-1.959-.78-3.489-1.097-4.595-.95ZM8.05 23.718c.097.05.212.181.257.29.069.168.065.249-.022.53-.315 1.012.103 1.877 1.232 2.547 1.24.736 3.384 1.249 5.82 1.392.381.023.77.08.864.128.342.175.4.586.129.913l-.17.204-.847-.04c-2.256-.106-4.428-.586-5.912-1.308-1.105-.537-1.775-1.16-2.183-2.026-.184-.39-.194-.452-.194-1.171 0-.684.016-.791.156-1.076.22-.446.508-.573.87-.383Z" fill="#E07153"/></svg>