<svg width="20" height="31" fill="none" xmlns="http://www.w3.org/2000/svg"><path fill-rule="evenodd" clip-rule="evenodd" d="M10.393.635c-.141.045-.61.799-.773 1.242-.1.27-.127.532-.105 1.005.03.632.036.649.456 1.296.352.541.433.727.465 1.065.045.481-.111 1.032-.46 1.623-.344.584-.296.826.165.826.251 0 .387-.112.662-.546.373-.59.547-1.23.511-1.88-.03-.557-.05-.61-.465-1.26l-.433-.68v-.629c0-.61.01-.644.337-1.184.186-.305.338-.581.338-.612 0-.031-.072-.114-.16-.183-.154-.122-.33-.15-.538-.083ZM4.357 3.278c-.57.641-.862 1.606-.723 2.388.056.313.184.587.49 1.052l.415.628-.002.597c-.003.55-.027.642-.307 1.162-.168.311-.322.639-.342.728-.049.21.166.385.44.36.269-.025.487-.287.815-.979.238-.5.261-.612.265-1.277l.005-.729-.435-.685c-.394-.619-.439-.73-.465-1.165-.033-.548.106-1.01.465-1.543.219-.324.23-.452.056-.63-.141-.145-.511-.093-.677.093Zm11.69.087a4.64 4.64 0 0 0-.414.675c-.182.365-.208.51-.211 1.176l-.004.76.437.685.437.685-.001.597c-.001.55-.025.641-.304 1.162-.398.743-.42.827-.248.976a.478.478 0 0 0 .617.01c.19-.164.58-.873.724-1.312.159-.486.16-1.222.003-1.64-.067-.18-.272-.545-.456-.813-.33-.48-.335-.496-.335-1.116 0-.612.008-.642.349-1.206.338-.561.345-.583.216-.738-.216-.262-.555-.22-.81.099ZM1.742 24.27l6.594 5.346a2.892 2.892 0 0 0 3.485 0l6.594-5.346a1.924 1.924 0 0 0 .707-1.55v-8.227a2.215 2.215 0 0 0-.55-1.633 1.789 1.789 0 0 1-.656 1.861l-6.605 5.347a2.715 2.715 0 0 1-3.474 0L1.242 14.72a1.882 1.882 0 0 1-.676-1.04L.4 14.721l.603 8.072a1.997 1.997 0 0 0 .718 1.498l.02-.021Z" fill="#1B1B1B"/><path fill-rule="evenodd" clip-rule="evenodd" d="m11.394 16.271.312-.25 2.372-1.924a.812.812 0 0 0 0-1.31l-3.505-2.819a1.342 1.342 0 0 0-1.623 0l-.967.78c-.978.801-.312 1.82.343 2.777.262.396.554.772.874 1.124.384.416 1.643 2.08 2.194 1.643v-.02Zm-6.178-1.976 3.505 2.84a1.352 1.352 0 0 0 1.3.176c.76-.29-.104-.79-.478-1.133-.375-.344-.79-.728-1.04-1.04a10.099 10.099 0 0 1-.926-1.176c-.863-1.248-.5-2.454-1.467-1.664l-.852.687a.822.822 0 0 0 0 1.32l-.042-.01Z" fill="#E07153"/></svg>