<svg width="30" height="30" fill="none" xmlns="http://www.w3.org/2000/svg"><path fill-rule="evenodd" clip-rule="evenodd" d="M25.97.933c-.26.652-.855 1.779-1.249 2.365-.842 1.252-1.474 1.909-3.705 3.85-2.29 1.991-2.97 2.746-3.63 4.025-.763 1.478-1.021 2.72-1.073 5.145-.024 1.105-.016 1.324.045 1.236.04-.058.277-.418.525-.8.953-1.465 1.806-2.423 3.588-4.026 1.811-1.63 2.52-2.403 3.34-3.648.63-.955 1.753-3.067 2.046-3.845.09-.24.206-.342.384-.342.483 0 .49.751.02 2.369-.416 1.44-.993 2.7-1.752 3.833-.587.877-1.04 1.42-2.204 2.643-1.509 1.585-1.937 2.068-2.515 2.837-.716.952-1.378 1.993-1.31 2.06.011.012.11-.002.218-.031.109-.03.88-.182 1.716-.34 2.282-.43 3.167-.692 4.319-1.277 1.894-.961 3.225-2.626 4.016-5.023.742-2.248.85-4.437.322-6.484A10.11 10.11 0 0 0 26.415.904L26.103.6l-.132.333ZM13.997 2.93c-2.507.24-4.768 1.138-6.646 2.641-.237.19-.43.36-.43.381 0 .021.206.097.459.17.252.072.69.232.974.354l.515.222.458-.297a10.392 10.392 0 0 1 8.882-1.156c.637.209 1.75.738 2.311 1.097l.42.269.664-.588c.366-.324.666-.614.669-.644.008-.105-1.14-.83-1.944-1.228a12.225 12.225 0 0 0-4.203-1.2c-.55-.054-1.66-.066-2.129-.021Zm11.792 3.544a26.67 26.67 0 0 1-1.575 2.816c-.843 1.283-1.536 2.06-3.053 3.424-2.177 1.956-3.19 3.104-4.172 4.727-.867 1.431-1.605 3.3-2.049 5.189-.022.094-.049.145-.06.114l-.28-.956c-.837-2.903-2.313-5.838-4.201-8.356-.826-1.1-2.102-2.531-2.806-3.146l-.386-.337.22.271c2.297 2.84 4.345 6.727 5.503 10.447.816 2.619 1.354 5.91 1.354 8.28v.452h1.358l.038-1.117c.19-5.454 1.504-9.36 4.263-12.665.237-.284.982-1.081 1.656-1.772.674-.69 1.395-1.464 1.6-1.72 1.128-1.394 2.067-3.147 2.563-4.779.206-.68.392-1.428.37-1.492-.01-.03-.164.25-.343.62ZM3.195 6.189c-.904.08-2.628.395-2.594.473.009.02.225.22.48.443.99.867 1.731 1.88 2.111 2.887.207.547.342 1.107.578 2.384.295 1.602.536 2.267 1.13 3.127.88 1.273 2.424 2.171 4.505 2.62.618.134 2.17.342 2.215.297.034-.033-.72-1.716-1.145-2.559-.958-1.897-2.187-3.827-3.38-5.306-.481-.597-.545-.812-.308-1.033.177-.164.39-.145.683.062.448.315 1.895 1.825 2.65 2.764.796.99 1.98 2.72 2.53 3.696.282.502.353.593.4.513.035-.057.058-.638.057-1.439-.001-1.509-.07-1.967-.461-3.088-.725-2.075-2.38-4.103-4.032-4.936-.872-.44-2.068-.77-3.204-.885a16.075 16.075 0 0 0-2.215-.02Zm-.106 6.289c-.205.969-.237 1.319-.234 2.555.003 1.388.09 2.055.425 3.241a12.143 12.143 0 0 0 8.676 8.448c.512.132 1.712.34 1.749.303.028-.028-.159-1.65-.204-1.767-.017-.045-.125-.098-.24-.118a16.06 16.06 0 0 1-.768-.174 10.265 10.265 0 0 1-7.697-8.33c-.093-.566-.122-.643-.403-1.07-.5-.756-.855-1.779-1.057-3.034-.039-.245-.09-.456-.112-.47-.023-.014-.083.173-.135.416Zm23.57 3.738c-.344.317-1.494 1.13-1.598 1.13-.025 0-.103.211-.174.469-.161.587-.385 1.151-.726 1.83-1.395 2.779-4.026 4.785-7.112 5.422-.34.07-.633.151-.653.18-.02.028-.066.377-.103.774-.037.398-.078.793-.092.88-.028.18-.054.18.947.007 4.56-.785 8.405-4.335 9.563-8.828.193-.747.366-1.788.34-2.036l-.019-.17-.372.342Z" fill="#00C070"/></svg>