<svg width="30" height="30" viewBox="0 0 30 30" fill="none" xmlns="http://www.w3.org/2000/svg">
<path fill-rule="evenodd" clip-rule="evenodd" d="M25.9707 0.932597C25.7105 1.58504 25.1152 2.71192 24.7213 3.29769C23.8791 4.55019 23.2473 5.20657 21.0157 7.14739C18.7257 9.13899 18.0452 9.89363 17.3854 11.1734C16.6234 12.6513 16.3646 13.8928 16.3129 16.318C16.2894 17.4227 16.2974 17.6417 16.358 17.5543C16.3985 17.4959 16.6346 17.136 16.8827 16.7545C17.8359 15.2886 18.6893 14.3309 20.4713 12.7276C22.2824 11.0981 22.9905 10.3246 23.811 9.0797C24.4402 8.125 25.5643 6.01309 25.8572 5.23548C25.9475 4.99561 26.0627 4.89272 26.2409 4.89272C26.7239 4.89272 26.7305 5.64445 26.2617 7.26159C25.8445 8.70112 25.2679 9.96253 24.5094 11.0949C23.9221 11.9716 23.4696 12.5141 22.3049 13.7379C20.7961 15.3231 20.3681 15.8061 19.79 16.5751C19.0742 17.5272 18.4118 18.5684 18.4791 18.6354C18.4911 18.6474 18.5897 18.6332 18.6982 18.6039C18.8067 18.5746 19.5789 18.4218 20.414 18.2643C22.6956 17.8339 23.5806 17.5723 24.733 16.9873C26.6274 16.0255 27.9579 14.3612 28.749 11.9639C29.4907 9.71626 29.5995 7.52711 29.0713 5.48021C28.6367 3.79584 27.6679 2.12694 26.4149 0.904034L26.1034 0.600006L25.9707 0.932597ZM13.9964 2.93077C11.4894 3.17047 9.22752 4.0693 7.34963 5.57201C7.11327 5.76116 6.91988 5.93277 6.91988 5.95333C6.91988 5.97396 7.12634 6.05022 7.37869 6.12283C7.63103 6.19549 8.06938 6.35482 8.35278 6.47695L8.86808 6.69901L9.32648 6.40155C11.9559 4.69535 15.2347 4.26861 18.208 5.24565C18.8451 5.45502 19.9589 5.98372 20.519 6.34259L20.9392 6.61183L21.6034 6.02366C21.9687 5.70009 22.2695 5.4104 22.2719 5.37984C22.2801 5.27541 21.1317 4.55031 20.3281 4.15242C19.0258 3.50769 17.6024 3.10152 16.1248 2.95293C15.5744 2.89763 14.4641 2.88604 13.9964 2.93077ZM25.7884 6.47496C25.3243 7.43799 24.713 8.53094 24.2131 9.29146C23.3697 10.5744 22.6775 11.3505 21.1596 12.715C18.9834 14.6714 17.9701 15.8194 16.9875 17.4419C16.1206 18.8733 15.3831 20.7414 14.9393 22.6305C14.9172 22.7248 14.8901 22.7762 14.8792 22.7448C14.8683 22.7133 14.7426 22.2831 14.5998 21.7886C13.762 18.8858 12.2861 15.9514 10.3976 13.4331C9.57218 12.3325 8.2964 10.9019 7.59207 10.2871L7.20638 9.95042L7.42538 10.2211C9.72259 13.0606 11.7707 16.9482 12.929 20.6677C13.7446 23.2867 14.2829 26.5788 14.2829 28.9476V29.4H14.9615H15.6401L15.6789 28.2834C15.8683 22.8294 17.1835 18.9225 19.9425 15.6176C20.1793 15.3339 20.9245 14.5368 21.5984 13.8463C22.2724 13.1558 22.9926 12.3818 23.1989 12.1265C24.3258 10.7322 25.2653 8.97927 25.7606 7.34722C25.9668 6.66782 26.1529 5.91894 26.1314 5.85485C26.1215 5.82503 25.9671 6.10409 25.7884 6.47496ZM3.19539 6.18915C2.29069 6.26993 0.567449 6.58361 0.600568 6.66153C0.609564 6.68267 0.825528 6.88238 1.08045 7.10535C2.07163 7.97213 2.8124 8.98464 3.19247 9.99212C3.39875 10.5387 3.53438 11.099 3.76982 12.3763C4.06509 13.978 4.30552 14.6434 4.89995 15.5034C5.77916 16.7756 7.32408 17.674 9.40515 18.1231C10.0232 18.2566 11.5756 18.4649 11.6202 18.4205C11.6535 18.3873 10.9002 16.7044 10.4745 15.861C9.51712 13.964 8.28798 12.0344 7.09453 10.5546C6.61356 9.9583 6.54956 9.74316 6.78747 9.5222C6.96412 9.35807 7.17745 9.37721 7.46996 9.5835C7.91805 9.89941 9.36544 11.4089 10.1204 12.3477C10.9162 13.3372 12.1001 15.0674 12.6495 16.0436C12.9321 16.5458 13.0031 16.6369 13.0506 16.5574C13.085 16.4998 13.1078 15.9193 13.1071 15.1184C13.1057 13.609 13.0373 13.1512 12.6459 12.0299C11.9214 9.95476 10.2654 7.9274 8.61413 7.09392C7.74231 6.65388 6.54583 6.32351 5.40969 6.2092C4.85388 6.15328 3.71315 6.14294 3.19539 6.18915ZM3.08927 12.4778C2.8842 13.4469 2.85211 13.7965 2.8548 15.0327C2.85784 16.4211 2.94534 17.0884 3.27974 18.2744C4.44929 22.4226 7.75566 25.6419 11.9556 26.7219C12.4682 26.8536 13.6677 27.0614 13.7047 27.0247C13.733 26.9967 13.5463 25.375 13.5013 25.2582C13.4839 25.2128 13.3755 25.1596 13.2603 25.1397C13.1452 25.12 12.7997 25.0417 12.4926 24.9659C8.47443 23.9738 5.46871 20.7204 4.79635 16.6355C4.70318 16.0696 4.67425 15.9929 4.39262 15.5662C3.89388 14.8104 3.53765 13.787 3.33635 12.5317C3.29716 12.2874 3.24656 12.076 3.22387 12.062C3.20118 12.048 3.14061 12.2351 3.08927 12.4778ZM26.6597 16.2163C26.3153 16.5331 25.1648 17.3463 25.0612 17.3463C25.0363 17.3463 24.958 17.5572 24.8871 17.815C24.7258 18.4019 24.5019 18.9662 24.161 19.6455C22.7665 22.4237 20.1346 24.4302 17.0488 25.0675C16.7093 25.1376 16.4156 25.2183 16.396 25.2468C16.3763 25.2754 16.33 25.6239 16.2931 26.0212C16.2561 26.4185 16.2148 26.8145 16.2012 26.9012C16.1731 27.0805 16.1472 27.0803 17.1479 26.908C21.7076 26.1227 25.5533 22.5728 26.7114 18.08C26.9038 17.3332 27.0772 16.2923 27.0505 16.0441L27.0321 15.8739L26.6597 16.2163Z" fill="#00C070"/>
</svg>
